<?xml version="1.0" encoding="UTF-8"?>
<svg id="katman_1" xmlns="http://www.w3.org/2000/svg" version="1.1" viewBox="0 0 80 80">
  <!-- Generator: Adobe Illustrator 29.1.0, SVG Export Plug-In . SVG Version: 2.1.0 Build 142)  -->
  <defs>
    <style>
      .st0 {
        fill: #fff;
      }

      .st1 {
        fill: #00a4b2;
      }
    </style>
  </defs>
  <path d="M77.7,40c0,20.8-16.9,37.7-37.7,37.7S2.3,60.8,2.3,40,19.2,2.3,40,2.3s37.7,16.9,37.7,37.7"/>
  <path class="st1" d="M68.5,49.5c-8.1-.9-15.8-1.4-23.3-1.3-10.9.2-24.3,1.5-31.1,4.1-1.6.6-2.1,1.4-2,2.3.1,1,1.2,1.5,2.9,1.3,5.9-.8,10.1-3.4,24.6-4.7,13.2-1.5,21.2-.9,28.7-.2.8,0,1.3-.1,1.3-.6,0-.4-.4-.8-1.1-.9h0Z"/>
  <path class="st0" d="M66.9,40.9c-1.2.6-3.1,1.6-5.6,1.6s-3.9-.8-4.5-2.5c7.2-3.7,12.2-5.9,12.2-8.8s-1.8-3.3-5.3-3.3c-5.8,0-13.1,4.5-13.1,10.5s0,.7,0,1c-.8.4-2.3,1.3-3.2,1.3s-.7-.2-.7-.8c0-1.9,2.3-5,2.6-8,.3-2.6-1.4-4.1-3.6-4.1s-4,.8-5.9,2c0-1.1-.8-2-2.1-2s-2.5,1.2-3.2,2.7c-.7,1.6-2,2.1-3.1,2.1s-1.7-.3-2.1-1.5c-.9-2.2-3.1-3.3-5.2-3.3s-2.5.4-3.4.8c-.3-.5-1-.8-1.8-.8-3.5,0-6.9,6.6-7,11.4h0v.2c0,4.1,2.3,7,6.3,7s9.7-5.2,11.2-9.6c1.1,0,2.6-.3,3.4-.7-1.7,4.9-3,6.4-3,8.2s.8,1.7,1.8,1.7c2.5,0,3.7-3.5,6-9.2,1.6-4,3.3-4.9,4.8-4.9s1.6.5,1.6,1.4c0,2.3-2.8,5.7-2.8,9.2s1.5,3.3,3.4,3.3,5.2-2.2,7.4-3.3c1.9,2.3,4.5,3.3,7.7,3.3s9-2.3,9-4.3-.9-1.2-1.9-.7h0ZM17.5,43c-.9,0-1.3-.6-1.3-1.7,0-3.8,4.2-10.3,7.4-10.3s1.4.5,1.4,1.6c0,3.7-4.6,10.4-7.5,10.4h0ZM62.6,31.4c.9,0,1.8.2,1.8.8s-.8,1.1-1.8,1.5l-6.3,3.1c0-3.5,4.2-5.5,6.3-5.5"/>
</svg>